<svg width="120" height="302" viewBox="0 0 120 302" fill="none" xmlns="http://www.w3.org/2000/svg">
<circle cx="7.21701" cy="213.714" r="6.36898" transform="rotate(-9.66052 7.21701 213.714)" fill="#CE3871"/>
<circle cx="27.3086" cy="210.294" r="6.36898" transform="rotate(-9.66052 27.3086 210.294)" fill="#CE3871"/>
<circle cx="47.4002" cy="206.874" r="6.36898" transform="rotate(-9.66052 47.4002 206.874)" fill="#CE3871"/>
<circle cx="67.492" cy="203.454" r="6.36898" transform="rotate(-9.66052 67.492 203.454)" fill="#CE3871"/>
<circle cx="10.637" cy="233.806" r="6.36898" transform="rotate(-9.66052 10.637 233.806)" fill="#CE3871"/>
<circle cx="30.7287" cy="230.386" r="6.36898" transform="rotate(-9.66052 30.7287 230.386)" fill="#CE3871"/>
<circle cx="50.8205" cy="226.966" r="6.36898" transform="rotate(-9.66052 50.8205 226.966)" fill="#CE3871"/>
<circle cx="70.9121" cy="223.546" r="6.36898" transform="rotate(-9.66052 70.9121 223.546)" fill="#CE3871"/>
<circle cx="14.057" cy="253.898" r="6.36898" transform="rotate(-9.66052 14.057 253.898)" fill="#CE3871"/>
<circle cx="34.1488" cy="250.477" r="6.36898" transform="rotate(-9.66052 34.1488 250.477)" fill="#CE3871"/>
<circle cx="54.2404" cy="247.057" r="6.36898" transform="rotate(-9.66052 54.2404 247.057)" fill="#CE3871"/>
<circle cx="74.3322" cy="243.637" r="6.36898" transform="rotate(-9.66052 74.3322 243.637)" fill="#CE3871"/>
<circle cx="17.477" cy="273.989" r="6.36898" transform="rotate(-9.66052 17.477 273.989)" fill="#CE3871"/>
<circle cx="37.5688" cy="270.569" r="6.36898" transform="rotate(-9.66052 37.5688 270.569)" fill="#CE3871"/>
<circle cx="57.6605" cy="267.149" r="6.36898" transform="rotate(-9.66052 57.6605 267.149)" fill="#CE3871"/>
<circle cx="77.7523" cy="263.729" r="6.36898" transform="rotate(-9.66052 77.7523 263.729)" fill="#CE3871"/>
<circle cx="20.8037" cy="294.386" r="6.36898" transform="rotate(-9.66052 20.8037 294.386)" fill="#CE3871"/>
<circle cx="40.8955" cy="290.966" r="6.36898" transform="rotate(-9.66052 40.8955 290.966)" fill="#CE3871"/>
<circle cx="60.9872" cy="287.546" r="6.36898" transform="rotate(-9.66052 60.9872 287.546)" fill="#CE3871"/>
<circle cx="81.0789" cy="284.126" r="6.36898" transform="rotate(-9.66052 81.0789 284.126)" fill="#CE3871"/>
<rect x="-14.101" width="189.362" height="189.362" rx="18" transform="rotate(45 -14.101 0)" fill="#70B5B6"/>
</svg>
