<svg width="120" height="98" viewBox="0 0 120 98" fill="none" xmlns="http://www.w3.org/2000/svg">
<g opacity="0.1">
<circle cx="89.2777" cy="47.1574" r="3.54539" transform="rotate(-4.62186 89.2777 47.1574)" fill="url(#paint0_linear)"/>
<circle cx="100.586" cy="46.2433" r="3.54539" transform="rotate(-4.62186 100.586 46.2433)" fill="url(#paint1_linear)"/>
<circle cx="111.894" cy="45.3291" r="3.54539" transform="rotate(-4.62186 111.894 45.3291)" fill="url(#paint2_linear)"/>
<circle cx="90.1919" cy="58.4659" r="3.54539" transform="rotate(-4.62186 90.1919 58.4659)" fill="url(#paint3_linear)"/>
<circle cx="101.5" cy="57.5517" r="3.54539" transform="rotate(-4.62186 101.5 57.5517)" fill="url(#paint4_linear)"/>
<circle cx="112.809" cy="56.6375" r="3.54539" transform="rotate(-4.62186 112.809 56.6375)" fill="url(#paint5_linear)"/>
<circle cx="91.1061" cy="69.7742" r="3.54539" transform="rotate(-4.62186 91.1061 69.7742)" fill="url(#paint6_linear)"/>
<circle cx="102.414" cy="68.86" r="3.54539" transform="rotate(-4.62186 102.414 68.86)" fill="url(#paint7_linear)"/>
<circle cx="113.723" cy="67.9459" r="3.54539" transform="rotate(-4.62186 113.723 67.9459)" fill="url(#paint8_linear)"/>
<circle cx="92.0203" cy="81.0825" r="3.54539" transform="rotate(-4.62186 92.0203 81.0825)" fill="url(#paint9_linear)"/>
<circle cx="103.329" cy="80.1683" r="3.54539" transform="rotate(-4.62186 103.329 80.1683)" fill="url(#paint10_linear)"/>
<circle cx="114.637" cy="79.2542" r="3.54539" transform="rotate(-4.62186 114.637 79.2542)" fill="url(#paint11_linear)"/>
<circle cx="81.5594" cy="93.4697" r="3.54539" transform="rotate(-4.62186 81.5594 93.4697)" fill="url(#paint12_linear)"/>
<circle cx="92.8677" cy="92.5555" r="3.54539" transform="rotate(-4.62186 92.8677 92.5555)" fill="url(#paint13_linear)"/>
<circle cx="104.176" cy="91.6412" r="3.54539" transform="rotate(-4.62186 104.176 91.6412)" fill="url(#paint14_linear)"/>
<circle cx="115.484" cy="90.7271" r="3.54539" transform="rotate(-4.62186 115.484 90.7271)" fill="url(#paint15_linear)"/>
</g>
<g clip-path="url(#clip0)">
<path d="M83.0084 47.3656C82.6421 47.1505 82.1894 47.145 81.818 47.3512L78.5156 49.186L77.6 17.1664C77.5818 16.5168 77.0498 15.9997 76.4 16H68C67.3502 15.9997 66.8181 16.5168 66.8 17.1664L65.6816 56.32L62 58.36V48.4C61.9997 47.7373 61.4621 47.2003 60.7994 47.2006C60.596 47.2008 60.3959 47.2525 60.218 47.3512L40.4 58.36V48.4C40.3997 47.7373 39.8621 47.2003 39.1994 47.2006C38.996 47.2008 38.7959 47.2525 38.618 47.3512L17.018 59.3512C16.6368 59.5625 16.4001 59.9641 16.4 60.4V86.8C16.4 87.4627 16.9373 88 17.6 88H82.4C83.0627 88 83.6 87.4627 83.6 86.8V48.4C83.6 47.9748 83.375 47.5812 83.0084 47.3656ZM69.1664 18.4H75.2336L75.3032 20.8H69.098L69.1664 18.4ZM69.0284 23.2H75.3716L76.1516 50.4988L68.12 54.9592L69.0284 23.2ZM48.8 85.6H41.6V79.6H48.8V85.6ZM58.4 85.6H51.2V79.6H58.4V85.6ZM81.2 85.6H60.8V78.4C60.8 77.7373 60.2627 77.2 59.6 77.2H40.4C39.7373 77.2 39.2 77.7373 39.2 78.4V85.6H18.8V61.1068L38 50.44V60.4C38.0003 61.0627 38.5379 61.5997 39.2006 61.5994C39.404 61.5993 39.6041 61.5475 39.782 61.4488L59.6 50.44V60.4C59.6003 61.0627 60.1379 61.5997 60.8006 61.5994C61.004 61.5993 61.2041 61.5475 61.382 61.4488L72.6992 55.162L77.96 52.24L81.2 50.44V85.6Z" fill="url(#paint16_linear)"/>
<path d="M33.2 64H23.6C22.9373 64 22.4 64.5373 22.4 65.2V70C22.4 70.6627 22.9373 71.2 23.6 71.2H33.2C33.8627 71.2 34.4 70.6627 34.4 70V65.2C34.4 64.5373 33.8627 64 33.2 64ZM32 68.8H24.8V66.4H32V68.8Z" fill="url(#paint17_linear)"/>
<path d="M54.8 64H45.2C44.5373 64 44 64.5373 44 65.2V70C44 70.6627 44.5373 71.2 45.2 71.2H54.8C55.4627 71.2 56 70.6627 56 70V65.2C56 64.5373 55.4627 64 54.8 64ZM53.6 68.8H46.4V66.4H53.6V68.8Z" fill="url(#paint18_linear)"/>
<path d="M76.4 64H66.8C66.1373 64 65.6 64.5373 65.6 65.2V70C65.6 70.6627 66.1373 71.2 66.8 71.2H76.4C77.0627 71.2 77.6 70.6627 77.6 70V65.2C77.6 64.5373 77.0627 64 76.4 64ZM75.2 68.8H68V66.4H75.2V68.8Z" fill="url(#paint19_linear)"/>
</g>
<path opacity="0.3" d="M1.31107 54C-0.791541 36.3333 6.80259 1 54 1" stroke="#925D8D" stroke-width="2"/>
<defs>
<linearGradient id="paint0_linear" x1="89.2777" y1="43.6121" x2="89.2777" y2="50.7028" gradientUnits="userSpaceOnUse">
<stop stop-color="#37395B"/>
<stop offset="1" stop-color="#70B5B6"/>
</linearGradient>
<linearGradient id="paint1_linear" x1="100.586" y1="42.6979" x2="100.586" y2="49.7886" gradientUnits="userSpaceOnUse">
<stop stop-color="#37395B"/>
<stop offset="1" stop-color="#70B5B6"/>
</linearGradient>
<linearGradient id="paint2_linear" x1="111.894" y1="41.7837" x2="111.894" y2="48.8745" gradientUnits="userSpaceOnUse">
<stop stop-color="#37395B"/>
<stop offset="1" stop-color="#70B5B6"/>
</linearGradient>
<linearGradient id="paint3_linear" x1="90.1919" y1="54.9205" x2="90.1919" y2="62.0112" gradientUnits="userSpaceOnUse">
<stop stop-color="#37395B"/>
<stop offset="1" stop-color="#70B5B6"/>
</linearGradient>
<linearGradient id="paint4_linear" x1="101.5" y1="54.0063" x2="101.5" y2="61.0971" gradientUnits="userSpaceOnUse">
<stop stop-color="#37395B"/>
<stop offset="1" stop-color="#70B5B6"/>
</linearGradient>
<linearGradient id="paint5_linear" x1="112.809" y1="53.0921" x2="112.809" y2="60.1829" gradientUnits="userSpaceOnUse">
<stop stop-color="#37395B"/>
<stop offset="1" stop-color="#70B5B6"/>
</linearGradient>
<linearGradient id="paint6_linear" x1="91.1061" y1="66.2288" x2="91.1061" y2="73.3196" gradientUnits="userSpaceOnUse">
<stop stop-color="#37395B"/>
<stop offset="1" stop-color="#70B5B6"/>
</linearGradient>
<linearGradient id="paint7_linear" x1="102.414" y1="65.3146" x2="102.414" y2="72.4054" gradientUnits="userSpaceOnUse">
<stop stop-color="#37395B"/>
<stop offset="1" stop-color="#70B5B6"/>
</linearGradient>
<linearGradient id="paint8_linear" x1="113.723" y1="64.4005" x2="113.723" y2="71.4912" gradientUnits="userSpaceOnUse">
<stop stop-color="#37395B"/>
<stop offset="1" stop-color="#70B5B6"/>
</linearGradient>
<linearGradient id="paint9_linear" x1="92.0203" y1="77.5371" x2="92.0203" y2="84.6279" gradientUnits="userSpaceOnUse">
<stop stop-color="#37395B"/>
<stop offset="1" stop-color="#70B5B6"/>
</linearGradient>
<linearGradient id="paint10_linear" x1="103.329" y1="76.6229" x2="103.329" y2="83.7137" gradientUnits="userSpaceOnUse">
<stop stop-color="#37395B"/>
<stop offset="1" stop-color="#70B5B6"/>
</linearGradient>
<linearGradient id="paint11_linear" x1="114.637" y1="75.7088" x2="114.637" y2="82.7996" gradientUnits="userSpaceOnUse">
<stop stop-color="#37395B"/>
<stop offset="1" stop-color="#70B5B6"/>
</linearGradient>
<linearGradient id="paint12_linear" x1="81.5594" y1="89.9243" x2="81.5594" y2="97.015" gradientUnits="userSpaceOnUse">
<stop stop-color="#37395B"/>
<stop offset="1" stop-color="#70B5B6"/>
</linearGradient>
<linearGradient id="paint13_linear" x1="92.8677" y1="89.0101" x2="92.8677" y2="96.1008" gradientUnits="userSpaceOnUse">
<stop stop-color="#37395B"/>
<stop offset="1" stop-color="#70B5B6"/>
</linearGradient>
<linearGradient id="paint14_linear" x1="104.176" y1="88.0958" x2="104.176" y2="95.1866" gradientUnits="userSpaceOnUse">
<stop stop-color="#37395B"/>
<stop offset="1" stop-color="#70B5B6"/>
</linearGradient>
<linearGradient id="paint15_linear" x1="115.484" y1="87.1817" x2="115.484" y2="94.2725" gradientUnits="userSpaceOnUse">
<stop stop-color="#37395B"/>
<stop offset="1" stop-color="#70B5B6"/>
</linearGradient>
<linearGradient id="paint16_linear" x1="50" y1="16" x2="50" y2="88" gradientUnits="userSpaceOnUse">
<stop stop-color="#70B5B6"/>
<stop offset="1" stop-color="#436D6D"/>
</linearGradient>
<linearGradient id="paint17_linear" x1="28.4" y1="64" x2="28.4" y2="71.2" gradientUnits="userSpaceOnUse">
<stop stop-color="#70B5B6"/>
<stop offset="1" stop-color="#436D6D"/>
</linearGradient>
<linearGradient id="paint18_linear" x1="50" y1="64" x2="50" y2="71.2" gradientUnits="userSpaceOnUse">
<stop stop-color="#70B5B6"/>
<stop offset="1" stop-color="#436D6D"/>
</linearGradient>
<linearGradient id="paint19_linear" x1="71.6" y1="64" x2="71.6" y2="71.2" gradientUnits="userSpaceOnUse">
<stop stop-color="#70B5B6"/>
<stop offset="1" stop-color="#436D6D"/>
</linearGradient>
<clipPath id="clip0">
<rect width="72" height="72" fill="white" transform="translate(14 16)"/>
</clipPath>
</defs>
</svg>
