<svg width="274" height="30" viewBox="0 0 274 30" fill="none" xmlns="http://www.w3.org/2000/svg">
<path d="M25.1306 28.9805C24.3761 28.0549 23.7198 27.2743 23.0893 26.4681C19.5753 21.9892 16.0871 17.5103 12.542 13.0399C12.2722 12.7772 12.1241 12.4439 12.1241 12.0994C12.1241 11.7549 12.2722 11.4216 12.542 11.1588C15.1259 7.92121 17.6219 4.63669 20.2161 1.27966C20.4537 1.48614 20.6763 1.70407 20.8827 1.9323C23.3374 5.11871 25.7766 8.28379 28.2829 11.4318C28.7222 11.9863 28.593 12.3361 28.2106 12.8181C26.6602 14.7846 25.1513 16.7809 23.5596 18.7388C23.3395 18.9433 23.2179 19.2074 23.2179 19.481C23.2179 19.7546 23.3395 20.0187 23.5596 20.2232C24.8309 21.7204 25.9781 23.2859 27.2339 24.7959C27.4442 24.9853 27.5634 25.2316 27.5691 25.4885C27.5748 25.7454 27.4666 25.9952 27.2649 26.1908C26.5465 27.0396 25.9161 27.9397 25.1306 28.9805ZM20.2833 8.10463C19.2962 9.35019 18.3816 10.4507 17.5547 11.5982C17.4674 11.7501 17.4221 11.9162 17.4221 12.0844C17.4221 12.2526 17.4674 12.4187 17.5547 12.5707C18.3816 13.7182 19.3014 14.823 20.2936 16.077C21.2961 14.7974 22.2315 13.6201 23.1255 12.4214C23.1917 12.3174 23.2285 12.2022 23.233 12.0848C23.2374 11.9673 23.2095 11.8505 23.1514 11.7432C22.2522 10.5488 21.3013 9.38431 20.2833 8.10463Z" fill="#8F8F8F"/>
<path d="M1.55032 11.3465C3.31768 11.3465 4.71813 11.3039 6.10825 11.3721C6.34111 11.3971 6.56546 11.4607 6.76791 11.5589C6.97035 11.6571 7.14673 11.788 7.28649 11.9437C10.7557 16.2093 14.1837 20.4948 17.5702 24.8003C17.6903 25.0149 17.7524 25.2485 17.7524 25.4849C17.7524 25.7213 17.6903 25.9549 17.5702 26.1695C16.9708 27.1591 16.1905 28.072 15.3688 29.1554L1.55032 11.3465Z" fill="#8F8F8F"/>
<path d="M38.4116 11.3508L29.7247 22.9021C28.81 21.7333 27.9677 20.7053 27.208 19.6389C27.084 19.464 27.2493 19.0673 27.4147 18.8412C29.1407 16.5179 30.8874 14.2187 32.6548 11.9437C32.7524 11.807 32.8823 11.6879 33.0368 11.5933C33.1912 11.4988 33.3671 11.4309 33.554 11.3935C35.0681 11.3167 36.5874 11.3508 38.4116 11.3508Z" fill="#8F8F8F"/>
<path d="M57.6614 11.3209C59.6861 11.2497 61.6726 11.7912 63.2477 12.8438C63.9489 13.3457 64.5047 13.9711 64.8741 14.6739C65.2435 15.3767 65.417 16.139 65.3819 16.9046C65.4128 17.681 65.2378 18.4535 64.8691 19.1682C64.5005 19.8829 63.9471 20.5225 63.2477 21.0422C61.698 22.1399 59.7016 22.7115 57.6614 22.6419H53.2275V28.7502C53.2398 28.8164 53.233 28.884 53.2077 28.9477C53.1825 29.0113 53.1394 29.0691 53.0821 29.1165C53.0247 29.1638 52.9547 29.1993 52.8776 29.2202C52.8005 29.241 52.7185 29.2466 52.6383 29.2365H49.2587C49.1785 29.2466 49.0965 29.241 49.0194 29.2202C48.9424 29.1993 48.8723 29.1638 48.8149 29.1165C48.7576 29.0691 48.7145 29.0113 48.6893 28.9477C48.664 28.884 48.6572 28.8164 48.6695 28.7502V11.8072C48.6572 11.741 48.664 11.6734 48.6893 11.6098C48.7145 11.5461 48.7576 11.4883 48.8149 11.4409C48.8723 11.3936 48.9424 11.3581 49.0194 11.3372C49.0965 11.3164 49.1785 11.3108 49.2587 11.3209H57.6614ZM57.6614 19.4938C58.1148 19.5133 58.5683 19.4569 58.9946 19.3279C59.4209 19.1988 59.8112 18.9999 60.1419 18.7431C60.427 18.5127 60.6536 18.2376 60.8083 17.934C60.963 17.6304 61.0426 17.3044 61.0426 16.975C61.0426 16.6456 60.963 16.3196 60.8083 16.016C60.6536 15.7123 60.427 15.4373 60.1419 15.2069C59.8092 14.9558 59.4198 14.7614 58.9959 14.6347C58.572 14.5081 58.122 14.4518 57.6717 14.469H53.2275V19.4938H57.6614Z" fill="#8F8F8F"/>
<path d="M86.0838 28.6521C86.3267 28.9507 86.1458 29.2407 85.6446 29.2407H82.239C82.0976 29.2464 81.9578 29.2141 81.8405 29.1487C81.7232 29.0834 81.6346 28.9885 81.5879 28.8782L77.7741 22.6419H73.3402V28.7502C73.3525 28.8164 73.3458 28.884 73.3205 28.9477C73.2952 29.0113 73.2522 29.0691 73.1948 29.1165C73.1375 29.1638 73.0674 29.1993 72.9903 29.2202C72.9132 29.241 72.8313 29.2466 72.7511 29.2365H69.3766C69.2964 29.2466 69.2144 29.241 69.1374 29.2202C69.0603 29.1993 68.9902 29.1638 68.9329 29.1165C68.8755 29.0691 68.8324 29.0113 68.8072 28.9477C68.7819 28.884 68.7752 28.8164 68.7875 28.7502V11.8072C68.7752 11.741 68.7819 11.6734 68.8072 11.6098C68.8324 11.5461 68.8755 11.4883 68.9329 11.4409C68.9902 11.3936 69.0603 11.3581 69.1374 11.3372C69.2144 11.3164 69.2964 11.3108 69.3766 11.3209H77.7741C79.7988 11.2497 81.7854 11.7912 83.3604 12.8438C84.0617 13.3457 84.6175 13.9711 84.9869 14.6739C85.3562 15.3767 85.5298 16.139 85.4947 16.9046C85.5235 17.9408 85.1904 18.962 84.5352 19.8462C83.8801 20.7304 82.9304 21.4403 81.7998 21.8911L86.0838 28.6521ZM73.3351 14.469V19.4938H77.769C78.2224 19.5133 78.6759 19.4569 79.1022 19.3279C79.5285 19.1988 79.9188 18.9999 80.2495 18.7431C80.5346 18.5127 80.7612 18.2376 80.9159 17.934C81.0705 17.6304 81.1502 17.3044 81.1502 16.975C81.1502 16.6456 81.0705 16.3196 80.9159 16.016C80.7612 15.7123 80.5346 15.4373 80.2495 15.2069C79.9168 14.9558 79.5273 14.7614 79.1035 14.6347C78.6796 14.5081 78.2296 14.4518 77.7793 14.469H73.3351Z" fill="#8F8F8F"/>
<path d="M99.401 29.552C96.0248 29.552 93.3445 28.7231 91.3601 27.0652C89.3602 25.4016 88.3628 23.192 88.3628 20.4023C88.3628 17.6126 89.3602 15.3561 91.3756 13.6499C93.391 11.9436 96.0524 11.1246 99.401 11.1246C102.75 11.1246 105.458 11.9778 107.458 13.6627C109.457 15.3476 110.439 17.5998 110.439 20.3853C110.439 23.1707 109.442 25.3846 107.458 27.0481C105.473 28.7117 102.776 29.552 99.401 29.552ZM99.401 26.067C101.204 26.1183 102.959 25.5838 104.29 24.5784C105.576 23.593 106.212 22.1896 106.212 20.4023C106.212 18.615 105.561 17.1775 104.274 16.1367C103.624 15.6257 102.856 15.2268 102.017 14.9631C101.178 14.6995 100.283 14.5764 99.3855 14.6011C98.4952 14.5777 97.6081 14.7015 96.7766 14.9652C95.945 15.2289 95.1857 15.6273 94.5434 16.1367C93.2566 17.1733 92.6055 18.5852 92.6055 20.4023C92.6055 22.2195 93.2411 23.5887 94.5124 24.5784C95.8453 25.589 97.608 26.124 99.4165 26.067H99.401Z" fill="#8F8F8F"/>
<path d="M115.049 28.7417C113.977 28.334 113.042 27.716 112.325 26.9416C112.247 26.8607 112.207 26.7589 112.212 26.6552C112.218 26.5516 112.269 26.4532 112.356 26.3785L114.16 24.604C114.48 24.3182 114.811 24.3182 115.194 24.6296C115.451 24.8499 115.724 25.0579 116.01 25.2524C116.266 25.418 116.552 25.549 116.858 25.6406C117.26 25.7805 117.693 25.8488 118.129 25.841C120.232 25.841 121.472 24.7789 121.472 22.6674V11.8072C121.475 11.6789 121.538 11.5565 121.648 11.4658C121.758 11.3751 121.906 11.3231 122.061 11.3209H125.451C125.605 11.3243 125.751 11.377 125.858 11.4678C125.965 11.5586 126.025 11.6804 126.025 11.8072V22.693C126.025 24.7405 125.343 26.3913 123.958 27.6283C123.314 28.2321 122.518 28.712 121.625 29.0341C120.732 29.3561 119.764 29.5126 118.79 29.4924C117.489 29.4877 116.207 29.2305 115.049 28.7417Z" fill="#8F8F8F"/>
<path d="M146.453 25.7259C146.533 25.7158 146.615 25.7213 146.692 25.7422C146.769 25.763 146.839 25.7986 146.897 25.8459C146.954 25.8933 146.997 25.9511 147.022 26.0147C147.048 26.0784 147.054 26.146 147.042 26.2122V28.7502C147.054 28.8164 147.048 28.8841 147.022 28.9477C146.997 29.0113 146.954 29.0692 146.897 29.1165C146.839 29.1638 146.769 29.1994 146.692 29.2202C146.615 29.2411 146.533 29.2467 146.453 29.2365H131.162C131.082 29.2467 131 29.2411 130.923 29.2202C130.845 29.1994 130.775 29.1638 130.718 29.1165C130.661 29.0692 130.618 29.0113 130.592 28.9477C130.567 28.8841 130.56 28.8164 130.573 28.7502V11.8072C130.56 11.7411 130.567 11.6734 130.592 11.6098C130.618 11.5462 130.661 11.4883 130.718 11.441C130.775 11.3936 130.845 11.3581 130.923 11.3372C131 11.3164 131.082 11.3108 131.162 11.321H146.36C146.439 11.313 146.519 11.3202 146.594 11.3421C146.669 11.3639 146.737 11.3998 146.793 11.4468C146.848 11.4939 146.89 11.5509 146.914 11.6134C146.939 11.6759 146.945 11.7423 146.934 11.8072V14.3197C146.945 14.3847 146.939 14.451 146.914 14.5135C146.89 14.576 146.848 14.633 146.793 14.6801C146.737 14.7272 146.669 14.763 146.594 14.7849C146.519 14.8067 146.439 14.8139 146.36 14.806H135.131V18.6919H144.593C144.675 18.681 144.759 18.6867 144.838 18.7084C144.917 18.7301 144.989 18.7673 145.046 18.8167C145.104 18.8661 145.147 18.9264 145.17 18.9923C145.194 19.0582 145.198 19.1278 145.182 19.1953V21.2684C145.194 21.3345 145.187 21.4022 145.162 21.4658C145.137 21.5295 145.094 21.5873 145.036 21.6346C144.979 21.682 144.909 21.7175 144.832 21.7384C144.755 21.7592 144.673 21.7648 144.593 21.7546H135.131V25.743L146.453 25.7259Z" fill="#8F8F8F"/>
<path d="M152.778 26.9287C151.728 26.0614 150.902 25.0271 150.35 23.8884C149.799 22.7496 149.533 21.5303 149.569 20.3043C149.538 19.0868 149.803 17.8765 150.349 16.7452C150.895 15.6139 151.711 14.5845 152.747 13.7182C153.748 12.8448 154.958 12.1535 156.301 11.6886C157.644 11.2236 159.09 10.9952 160.545 11.018C164.18 11.018 167.148 12.0133 169.449 14.004C169.498 14.0412 169.535 14.0871 169.558 14.138C169.582 14.189 169.591 14.2437 169.585 14.298C169.579 14.3523 169.558 14.4048 169.524 14.4514C169.49 14.498 169.443 14.5375 169.387 14.567L166.876 16.3415C166.832 16.3812 166.778 16.4125 166.718 16.433C166.658 16.4536 166.593 16.463 166.528 16.4606C166.462 16.4581 166.399 16.4439 166.341 16.4189C166.283 16.3939 166.233 16.3587 166.194 16.3159C165.484 15.6939 164.621 15.2048 163.662 14.8818C162.704 14.5587 161.673 14.4092 160.638 14.4433C159.76 14.4321 158.888 14.579 158.085 14.8736C157.282 15.1682 156.566 15.6036 155.988 16.1496C154.735 17.2803 154.062 18.7682 154.112 20.3C154.054 21.8406 154.727 23.3391 155.988 24.476C156.567 25.0213 157.283 25.4562 158.086 25.7508C158.889 26.0454 159.76 26.1926 160.638 26.1823C161.647 26.2124 162.653 26.0671 163.589 25.7557C164.5 25.3822 165.337 24.896 166.07 24.3139C166.105 24.2753 166.149 24.2431 166.2 24.2194C166.252 24.1957 166.308 24.181 166.366 24.1761C166.424 24.1713 166.483 24.1765 166.539 24.1915C166.595 24.2064 166.646 24.2306 166.69 24.2627L169.274 25.969C169.548 26.1823 169.594 26.3571 169.393 26.5064C168.291 27.4969 166.949 28.2845 165.454 28.8181C163.959 29.3517 162.345 29.6193 160.716 29.6033C159.241 29.6329 157.775 29.4106 156.409 28.9504C155.043 28.4902 153.807 27.8019 152.778 26.9287Z" fill="#8F8F8F"/>
<path d="M189.438 11.321C189.518 11.3108 189.6 11.3164 189.677 11.3372C189.754 11.3581 189.824 11.3936 189.882 11.441C189.939 11.4883 189.982 11.5462 190.008 11.6098C190.033 11.6734 190.04 11.7411 190.027 11.8072V14.3453C190.04 14.4115 190.033 14.4791 190.008 14.5427C189.982 14.6064 189.939 14.6642 189.882 14.7116C189.824 14.7589 189.754 14.7944 189.677 14.8153C189.6 14.8361 189.518 14.8417 189.438 14.8316H182.865V28.7502C182.877 28.8164 182.87 28.8841 182.845 28.9477C182.82 29.0113 182.777 29.0692 182.719 29.1165C182.662 29.1638 182.592 29.1994 182.515 29.2202C182.438 29.2411 182.356 29.2467 182.276 29.2365H178.855C178.776 29.2437 178.696 29.236 178.622 29.2138C178.548 29.1917 178.48 29.1557 178.426 29.1088C178.371 29.0618 178.33 29.005 178.305 28.9429C178.281 28.8807 178.275 28.8148 178.286 28.7502V14.8316H171.692C171.612 14.8417 171.53 14.8361 171.453 14.8153C171.376 14.7944 171.306 14.7589 171.248 14.7116C171.191 14.6642 171.148 14.6064 171.123 14.5427C171.098 14.4791 171.091 14.4115 171.103 14.3453V11.8072C171.091 11.7411 171.098 11.6734 171.123 11.6098C171.148 11.5462 171.191 11.4883 171.248 11.441C171.306 11.3936 171.376 11.3581 171.453 11.3372C171.53 11.3164 171.612 11.3108 171.692 11.321H189.438Z" fill="#8F8F8F"/>
<path d="M230.95 11.3209C231.223 11.3209 231.314 11.4332 231.224 11.6579L224.279 29.0402C224.263 29.1036 224.218 29.1596 224.154 29.1968C224.089 29.234 224.01 29.2497 223.933 29.2407H222.599C222.519 29.245 222.439 29.2279 222.371 29.1918C222.303 29.1557 222.251 29.1026 222.222 29.0402L216.248 15.4927L210.326 29.0402C210.3 29.1043 210.249 29.1591 210.18 29.1956C210.112 29.2321 210.03 29.248 209.949 29.2407H208.616C208.54 29.2473 208.464 29.2304 208.403 29.1933C208.342 29.1562 208.3 29.1016 208.285 29.0402L201.277 11.6579C201.261 11.6207 201.256 11.5809 201.261 11.5417C201.267 11.5025 201.284 11.465 201.311 11.4321C201.338 11.3993 201.373 11.3722 201.415 11.3528C201.457 11.3335 201.503 11.3226 201.551 11.3209H203.2C203.28 11.3123 203.361 11.3298 203.425 11.3696C203.49 11.4094 203.533 11.4685 203.546 11.5342L209.334 26.1908L215.266 12.4172C215.373 12.2665 215.494 12.1911 215.628 12.1911H216.868C216.946 12.1974 217.02 12.2221 217.082 12.2622C217.143 12.3023 217.189 12.3561 217.215 12.4172L223.137 26.2889L228.966 11.5171C228.991 11.4545 229.04 11.4002 229.105 11.3618C229.17 11.3235 229.248 11.3032 229.328 11.3038L230.95 11.3209Z" fill="#8F8F8F"/>
<path d="M251.564 28.9038C251.671 29.1284 251.58 29.2407 251.291 29.2407H249.601C249.404 29.2407 249.28 29.1768 249.27 29.0659L246.846 24.2031H236.909L234.325 29.0659C234.296 29.1206 234.247 29.1667 234.185 29.1979C234.123 29.2292 234.051 29.2441 233.979 29.2407H232.237C232.041 29.2407 231.917 29.0914 231.994 28.9038L241.27 11.5172C241.301 11.4623 241.35 11.4157 241.411 11.3826C241.472 11.3494 241.543 11.331 241.617 11.3295H242.65C242.724 11.3277 242.797 11.3448 242.859 11.3784C242.921 11.4119 242.969 11.4604 242.996 11.5172L251.564 28.9038ZM242.087 14.0765L237.679 22.7229H246.144L242.087 14.0765Z" fill="#8F8F8F"/>
<path d="M271.346 11.3209C271.403 11.3172 271.459 11.3279 271.508 11.3516C271.556 11.3754 271.595 11.4109 271.618 11.4534C271.641 11.4959 271.648 11.5433 271.637 11.589C271.627 11.6348 271.599 11.6767 271.558 11.7091L263.212 20.8162V29.0061C263.217 29.0402 263.213 29.0747 263.199 29.1071C263.186 29.1395 263.164 29.169 263.134 29.1932C263.105 29.2175 263.069 29.2359 263.03 29.2471C262.991 29.2582 262.949 29.2619 262.908 29.2578H261.29C261.248 29.2641 261.204 29.2621 261.163 29.2519C261.121 29.2417 261.084 29.2236 261.052 29.1991C261.021 29.1746 260.997 29.1443 260.983 29.1108C260.969 29.0772 260.964 29.0414 260.97 29.0061V20.765L252.598 11.7048C252.402 11.5427 252.551 11.3166 252.841 11.3166H254.67C254.753 11.3109 254.836 11.3257 254.909 11.3591C254.982 11.3925 255.041 11.4431 255.078 11.5043L262.117 19.1824L269.052 11.5043C269.094 11.4464 269.154 11.3986 269.226 11.3657C269.297 11.3328 269.378 11.3159 269.46 11.3166L271.346 11.3209Z" fill="#8F8F8F"/>
</svg>
