<svg width="226" height="30" viewBox="0 0 226 30" fill="none" xmlns="http://www.w3.org/2000/svg">
<path d="M20.7436 28.9805C20.1208 28.0549 19.5791 27.2743 19.0374 26.4681C16.1368 21.9892 13.2575 17.5103 10.3313 13.04C10.1085 12.7772 9.98627 12.4439 9.98627 12.0994C9.98627 11.7549 10.1085 11.4216 10.3313 11.1588C12.4641 7.92123 14.5244 4.63672 16.6657 1.27969C16.8619 1.48616 17.0456 1.70409 17.216 1.93232C19.2635 5.11873 21.2768 8.28381 23.3456 11.4318C23.4963 11.6307 23.5727 11.8759 23.5618 12.1251C23.5509 12.3743 23.4533 12.6119 23.2859 12.7968C22.0062 14.7633 20.7607 16.7596 19.4469 18.7175C19.2652 18.922 19.1648 19.1861 19.1648 19.4597C19.1648 19.7333 19.2652 19.9974 19.4469 20.2019C20.4962 21.6991 21.4432 23.2646 22.4797 24.7746C22.6533 24.964 22.7517 25.2103 22.7565 25.4672C22.7612 25.7241 22.6719 25.9738 22.5053 26.1695C21.9124 27.0397 21.392 27.9397 20.7436 28.9805ZM16.7425 8.10465C15.9278 9.35021 15.1727 10.4507 14.4902 11.5982C14.4182 11.7502 14.3808 11.9163 14.3808 12.0845C14.3808 12.2527 14.4182 12.4188 14.4902 12.5707C15.1727 13.7182 15.932 14.823 16.751 16.0771C17.5785 14.7974 18.3506 13.6201 19.0886 12.4214C19.1399 12.3158 19.1666 12.1998 19.1666 12.0823C19.1666 11.9648 19.1399 11.8489 19.0886 11.7432C18.3677 10.5488 17.5828 9.38434 16.7425 8.10465Z" fill="#70B5B6"/>
<path d="M1.27966 11.3465C2.7385 11.3465 3.89448 11.3039 5.04193 11.3721C5.23413 11.3971 5.41933 11.4606 5.58643 11.5588C5.75353 11.657 5.89912 11.7879 6.01448 11.9437C8.87813 16.2093 11.7076 20.4948 14.503 24.8002C14.6021 25.0149 14.6534 25.2485 14.6534 25.4849C14.6534 25.7213 14.6021 25.9548 14.503 26.1695C14.0082 27.1591 13.3641 28.0719 12.6859 29.1554L1.27966 11.3465Z" fill="#37395B"/>
<path d="M31.7062 11.3508L24.5358 22.902C23.7807 21.7333 23.0855 20.7053 22.4584 19.6389C22.356 19.464 22.4925 19.0673 22.629 18.8412C24.0537 16.5179 25.4955 14.2187 26.9544 11.9437C27.035 11.807 27.1422 11.6878 27.2697 11.5933C27.3972 11.4988 27.5423 11.4308 27.6966 11.3934C28.9464 11.3167 30.2005 11.3508 31.7062 11.3508Z" fill="#37395B"/>
<path d="M47.5956 11.3209C49.2669 11.2496 50.9066 11.7912 52.2067 12.8437C52.7855 13.3456 53.2443 13.971 53.5492 14.6739C53.8541 15.3767 53.9974 16.139 53.9684 16.9046C53.9939 17.681 53.8494 18.4535 53.5451 19.1682C53.2408 19.8829 52.784 20.5225 52.2067 21.0422C50.9275 22.1398 49.2797 22.7115 47.5956 22.6418H43.9357V28.7502C43.9459 28.8163 43.9403 28.884 43.9194 28.9476C43.8986 29.0113 43.863 29.0691 43.8157 29.1164C43.7684 29.1638 43.7105 29.1993 43.6469 29.2202C43.5833 29.241 43.5156 29.2466 43.4494 29.2364H40.6597C40.5935 29.2466 40.5259 29.241 40.4623 29.2202C40.3986 29.1993 40.3408 29.1638 40.2935 29.1164C40.2461 29.0691 40.2106 29.0113 40.1897 28.9476C40.1689 28.884 40.1633 28.8163 40.1734 28.7502V11.8072C40.1633 11.741 40.1689 11.6734 40.1897 11.6097C40.2106 11.5461 40.2461 11.4883 40.2935 11.4409C40.3408 11.3936 40.3986 11.358 40.4623 11.3372C40.5259 11.3163 40.5935 11.3108 40.6597 11.3209H47.5956ZM47.5956 19.4938C47.9699 19.5133 48.3442 19.4569 48.6961 19.3278C49.048 19.1988 49.3701 18.9999 49.6431 18.7431C50.1119 18.2842 50.3793 17.658 50.3865 17.0021C50.3937 16.3462 50.1401 15.7143 49.6815 15.2453L49.6431 15.2069C49.3685 14.9558 49.047 14.7613 48.6971 14.6347C48.3473 14.5081 47.9758 14.4517 47.6041 14.4689H43.9357V19.4938H47.5956Z" fill="#37395B"/>
<path d="M71.0564 28.6521C71.2569 28.9506 71.1076 29.2407 70.6939 29.2407H67.8828C67.7661 29.2463 67.6507 29.214 67.5539 29.1487C67.457 29.0834 67.3839 28.9884 67.3454 28.8781L64.1973 22.6418H60.5375V28.7502C60.5476 28.8163 60.542 28.884 60.5212 28.9476C60.5003 29.0113 60.4648 29.0691 60.4174 29.1164C60.3701 29.1638 60.3123 29.1993 60.2486 29.2202C60.185 29.241 60.1174 29.2466 60.0512 29.2364H57.2657C57.1996 29.2466 57.1319 29.241 57.0683 29.2202C57.0046 29.1993 56.9468 29.1638 56.8995 29.1164C56.8521 29.0691 56.8166 29.0113 56.7957 28.9476C56.7749 28.884 56.7693 28.8163 56.7795 28.7502V11.8072C56.7693 11.741 56.7749 11.6734 56.7957 11.6097C56.8166 11.5461 56.8521 11.4883 56.8995 11.4409C56.9468 11.3936 57.0046 11.358 57.0683 11.3372C57.1319 11.3163 57.1996 11.3108 57.2657 11.3209H64.1973C65.8686 11.2496 67.5084 11.7912 68.8085 12.8437C69.3873 13.3456 69.8461 13.971 70.151 14.6739C70.4559 15.3767 70.5991 16.139 70.5702 16.9046C70.5939 17.9408 70.319 18.9619 69.7782 19.8461C69.2374 20.7303 68.4535 21.4402 67.5202 21.8911L71.0564 28.6521ZM60.5332 14.4689V19.4938H64.1931C64.5674 19.5133 64.9417 19.4569 65.2936 19.3278C65.6455 19.1988 65.9676 18.9999 66.2406 18.7431C66.7094 18.2842 66.9767 17.658 66.9839 17.0021C66.9911 16.3462 66.7376 15.7143 66.279 15.2453L66.2406 15.2069C65.966 14.9558 65.6445 14.7613 65.2946 14.6347C64.9447 14.5081 64.5733 14.4517 64.2016 14.4689H60.5332Z" fill="#37395B"/>
<path d="M82.0489 29.5521C79.262 29.5521 77.0496 28.7232 75.4116 27.0653C73.7608 25.4017 72.9376 23.1921 72.9376 20.4024C72.9376 17.6127 73.7608 15.3562 75.4244 13.6499C77.088 11.9437 79.2848 11.1247 82.0489 11.1247C84.813 11.1247 87.0482 11.9778 88.699 13.6627C90.3498 15.3477 91.1602 17.5999 91.1602 20.3853C91.1602 23.1708 90.337 25.3846 88.699 27.0482C87.061 28.7118 84.8343 29.5521 82.0489 29.5521ZM82.0489 26.0671C83.537 26.1184 84.9859 25.5839 86.0842 24.5784C87.1463 23.5931 87.671 22.1897 87.671 20.4024C87.671 18.6151 87.1335 17.1776 86.0714 16.1368C85.5344 15.6258 84.901 15.2268 84.2082 14.9632C83.5153 14.6995 82.777 14.5765 82.0361 14.6012C81.3012 14.5778 80.569 14.7016 79.8826 14.9653C79.1962 15.229 78.5694 15.6273 78.0392 16.1368C76.9771 17.1733 76.4396 18.5853 76.4396 20.4024C76.4396 22.2195 76.9643 23.5888 78.0136 24.5784C79.1139 25.589 80.5688 26.1241 82.0617 26.0671H82.0489Z" fill="#37395B"/>
<path d="M94.9652 28.7416C94.0802 28.334 93.3084 27.716 92.7172 26.9416C92.6522 26.8606 92.619 26.7588 92.6237 26.6552C92.6284 26.5516 92.6708 26.4532 92.7428 26.3785L94.2315 24.604C94.4959 24.3182 94.7689 24.3182 95.0846 24.6296C95.2971 24.8499 95.5222 25.0578 95.7586 25.2524C95.9697 25.418 96.2058 25.549 96.4581 25.6405C96.7899 25.7804 97.1475 25.8488 97.5074 25.841C99.2435 25.841 100.267 24.7789 100.267 22.6674V11.8072C100.269 11.6789 100.321 11.5565 100.412 11.4658C100.503 11.375 100.625 11.3231 100.754 11.3209H103.552C103.679 11.3242 103.799 11.3769 103.887 11.4678C103.976 11.5586 104.025 11.6804 104.025 11.8072V22.693C104.025 24.7405 103.462 26.3913 102.319 27.6283C101.788 28.2321 101.13 28.712 100.393 29.034C99.6562 29.3561 98.8575 29.5126 98.0534 29.4924C96.9794 29.4877 95.9215 29.2305 94.9652 28.7416Z" fill="#37395B"/>
<path d="M120.887 25.7259C120.953 25.7157 121.021 25.7213 121.085 25.7421C121.148 25.763 121.206 25.7985 121.254 25.8459C121.301 25.8932 121.336 25.9511 121.357 26.0147C121.378 26.0783 121.384 26.146 121.374 26.2121V28.7715C121.384 28.8377 121.378 28.9053 121.357 28.969C121.336 29.0326 121.301 29.0904 121.254 29.1378C121.206 29.1851 121.148 29.2207 121.085 29.2415C121.021 29.2624 120.953 29.2679 120.887 29.2578H108.265C108.199 29.2679 108.131 29.2624 108.068 29.2415C108.004 29.2207 107.946 29.1851 107.899 29.1378C107.852 29.0904 107.816 29.0326 107.795 28.969C107.774 28.9053 107.769 28.8377 107.779 28.7715V11.8072C107.769 11.741 107.774 11.6734 107.795 11.6097C107.816 11.5461 107.852 11.4883 107.899 11.4409C107.946 11.3936 108.004 11.358 108.068 11.3372C108.131 11.3163 108.199 11.3108 108.265 11.3209H120.81C120.876 11.313 120.942 11.3202 121.004 11.342C121.066 11.3639 121.122 11.3997 121.168 11.4468C121.213 11.4938 121.248 11.5509 121.268 11.6134C121.288 11.6759 121.294 11.7422 121.284 11.8072V14.3196C121.294 14.3846 121.288 14.4509 121.268 14.5135C121.248 14.576 121.213 14.633 121.168 14.6801C121.122 14.7271 121.066 14.763 121.004 14.7848C120.942 14.8066 120.876 14.8139 120.81 14.8059H111.541V18.6919H119.352C119.419 18.681 119.489 18.6866 119.554 18.7083C119.619 18.7301 119.678 18.7672 119.726 18.8167C119.774 18.8661 119.809 18.9263 119.828 18.9922C119.848 19.0581 119.851 19.1278 119.838 19.1952V21.2683C119.848 21.3345 119.842 21.4021 119.822 21.4658C119.801 21.5294 119.765 21.5872 119.718 21.6346C119.671 21.6819 119.613 21.7175 119.549 21.7383C119.485 21.7592 119.418 21.7647 119.352 21.7546H111.541V25.7429L120.887 25.7259Z" fill="#37395B"/>
<path d="M126.108 26.9288C125.241 26.0615 124.559 25.0271 124.104 23.8884C123.649 22.7497 123.429 21.5303 123.459 20.3043C123.434 19.0868 123.653 17.8765 124.103 16.7452C124.554 15.6139 125.227 14.5846 126.083 13.7182C126.909 12.8448 127.908 12.1536 129.016 11.6886C130.125 11.2237 131.318 10.9953 132.52 11.0181C135.52 11.0181 137.97 12.0134 139.869 14.004C139.909 14.0412 139.94 14.0871 139.959 14.1381C139.979 14.189 139.986 14.2437 139.981 14.298C139.976 14.3523 139.959 14.4048 139.931 14.4514C139.902 14.498 139.864 14.5376 139.818 14.567L137.745 16.3415C137.68 16.413 137.589 16.4558 137.492 16.4606C137.395 16.4654 137.301 16.4318 137.229 16.3671L137.182 16.3159C136.596 15.6939 135.883 15.2049 135.092 14.8818C134.301 14.5588 133.45 14.4092 132.596 14.4433C131.871 14.4322 131.152 14.579 130.489 14.8736C129.826 15.1683 129.235 15.6037 128.757 16.1496C127.723 17.2803 127.168 18.7682 127.209 20.3C127.161 21.8407 127.717 23.3391 128.757 24.476C129.236 25.0213 129.827 25.4562 130.489 25.7508C131.152 26.0454 131.871 26.1926 132.596 26.1823C133.429 26.2125 134.259 26.0671 135.032 25.7557C135.784 25.3822 136.474 24.896 137.079 24.314C137.107 24.2772 137.142 24.2463 137.181 24.223C137.221 24.1997 137.265 24.1844 137.311 24.1781C137.356 24.1717 137.403 24.1744 137.447 24.186C137.492 24.1976 137.533 24.2179 137.57 24.2457H137.591L139.724 25.9519C139.95 26.1652 139.989 26.3401 139.822 26.4894C138.915 27.4829 137.808 28.2738 136.573 28.8104C135.339 29.3469 134.006 29.6171 132.66 29.6033C131.443 29.6329 130.232 29.4107 129.105 28.9504C127.977 28.4902 126.957 27.8019 126.108 26.9288V26.9288Z" fill="#37395B"/>
<path d="M156.369 11.3209C156.435 11.3108 156.502 11.3163 156.566 11.3372C156.63 11.358 156.687 11.3936 156.735 11.4409C156.782 11.4883 156.818 11.5461 156.839 11.6097C156.859 11.6733 156.865 11.741 156.855 11.8072V14.3665C156.865 14.4327 156.859 14.5004 156.839 14.564C156.818 14.6276 156.782 14.6855 156.735 14.7328C156.687 14.7802 156.63 14.8157 156.566 14.8365C156.502 14.8574 156.435 14.863 156.369 14.8528H150.943V28.7502C150.953 28.8163 150.947 28.884 150.926 28.9476C150.906 29.0113 150.87 29.0691 150.823 29.1164C150.775 29.1638 150.717 29.1993 150.654 29.2202C150.59 29.241 150.523 29.2466 150.456 29.2364H147.633C147.568 29.2437 147.502 29.2359 147.441 29.2138C147.379 29.1916 147.324 29.1557 147.278 29.1087C147.233 29.0617 147.199 29.005 147.179 28.9428C147.159 28.8806 147.154 28.8147 147.163 28.7502V14.8315H141.72C141.654 14.8416 141.587 14.8361 141.523 14.8152C141.459 14.7944 141.402 14.7588 141.354 14.7115C141.307 14.6641 141.271 14.6063 141.25 14.5427C141.23 14.479 141.224 14.4114 141.234 14.3452V11.7859C141.224 11.7197 141.23 11.652 141.25 11.5884C141.271 11.5248 141.307 11.4669 141.354 11.4196C141.402 11.3722 141.459 11.3367 141.523 11.3159C141.587 11.295 141.654 11.2894 141.72 11.2996L156.369 11.3209Z" fill="#37395B"/>
<path d="M190.634 11.3209C190.859 11.3209 190.934 11.4332 190.86 11.6579L185.127 29.0402C185.114 29.1036 185.077 29.1596 185.024 29.1968C184.971 29.234 184.906 29.2497 184.841 29.2407H183.741C183.674 29.245 183.608 29.2279 183.552 29.1918C183.496 29.1557 183.453 29.1026 183.43 29.0402L178.498 15.4927L173.61 29.0402C173.589 29.1043 173.547 29.1591 173.49 29.1956C173.433 29.2321 173.366 29.248 173.299 29.2407H172.198C172.136 29.2473 172.073 29.2303 172.023 29.1933C171.972 29.1562 171.938 29.1016 171.925 29.0402L166.141 11.6579C166.129 11.6268 166.124 11.5937 166.125 11.5606C166.127 11.5275 166.134 11.4949 166.148 11.4648C166.162 11.4346 166.182 11.4075 166.206 11.3851C166.231 11.3626 166.259 11.3451 166.29 11.3337H166.367H167.728C167.794 11.3251 167.861 11.3426 167.914 11.3824C167.967 11.4222 168.003 11.4812 168.014 11.547L172.791 26.2036L177.688 12.43C177.776 12.2792 177.876 12.2039 177.987 12.2039H179.01C179.075 12.2102 179.136 12.2349 179.186 12.275C179.237 12.315 179.275 12.3689 179.296 12.43L184.185 26.3017L188.996 11.5171C189.017 11.4545 189.057 11.4002 189.111 11.3618C189.164 11.3235 189.229 11.3032 189.295 11.3038L190.634 11.3209Z" fill="#37395B"/>
<path d="M207.65 28.9037C207.738 29.1284 207.662 29.2407 207.424 29.2407H206.029C205.867 29.2407 205.764 29.1767 205.756 29.0658L203.755 24.203H195.552L193.42 29.0658C193.395 29.1206 193.355 29.1667 193.304 29.1979C193.253 29.2292 193.194 29.2441 193.134 29.2407H191.696C191.534 29.2407 191.432 29.0914 191.496 28.9037L199.174 11.5171C199.199 11.4623 199.24 11.4157 199.29 11.3825C199.34 11.3494 199.399 11.331 199.46 11.3294H200.313C200.374 11.3277 200.434 11.3448 200.485 11.3783C200.536 11.4119 200.576 11.4603 200.599 11.5171L207.65 28.9037ZM199.826 14.0765L196.188 22.7229H203.175L199.826 14.0765Z" fill="#37395B"/>
<path d="M223.978 11.3209C224.025 11.3172 224.071 11.3279 224.111 11.3517C224.152 11.3754 224.183 11.4109 224.203 11.4534C224.222 11.4959 224.227 11.5433 224.218 11.5891C224.21 11.6348 224.187 11.6768 224.153 11.7091L217.264 20.8162V29.0061C217.272 29.0655 217.255 29.1253 217.218 29.1725C217.181 29.2197 217.127 29.2503 217.068 29.2578H215.678C215.642 29.2641 215.606 29.2621 215.572 29.2519C215.538 29.2417 215.507 29.2236 215.481 29.1991C215.456 29.1746 215.436 29.1443 215.424 29.1108C215.412 29.0773 215.408 29.0414 215.413 29.0061V20.765L208.503 11.7048C208.341 11.5427 208.464 11.3167 208.703 11.3167H210.213C210.282 11.3109 210.35 11.3257 210.41 11.3591C210.47 11.3925 210.519 11.4431 210.55 11.5043L216.36 19.1824L222.084 11.5043C222.119 11.4464 222.169 11.3986 222.228 11.3657C222.287 11.3328 222.354 11.3159 222.421 11.3167L223.978 11.3209Z" fill="#37395B"/>
</svg>
